<mxfile host="65bd71144e">
    <diagram id="CfQrsZomOojCk4QGLM3-" name="Page-1">
        <mxGraphModel dx="774" dy="656" grid="0" gridSize="10" guides="1" tooltips="1" connect="1" arrows="1" fold="1" page="1" pageScale="1" pageWidth="850" pageHeight="1100" background="#262626" math="0" shadow="0">
            <root>
                <mxCell id="0"/>
                <mxCell id="1" parent="0"/>
                <mxCell id="2" value="&lt;h2 style=&quot;font-size: 20px;&quot;&gt;user storie&lt;/h2&gt;" style="text;html=1;align=center;verticalAlign=middle;resizable=0;points=[];autosize=1;sketch=1;curveFitting=1;jiggle=2;fillColor=none;fontFamily=Comic Sans MS;fontStyle=3;fontSize=20;" vertex="1" parent="1">
                    <mxGeometry x="320" y="25" width="124" height="69" as="geometry"/>
                </mxCell>
                <mxCell id="3" value="&lt;font color=&quot;#f5ffeb&quot;&gt;en tant qu'utilisateur je souhait une page d'accueil expicite afin de naviger facilement&lt;/font&gt;" style="whiteSpace=wrap;html=1;sketch=1;curveFitting=1;jiggle=2;fillColor=none;fontFamily=Comic Sans MS;" vertex="1" parent="1">
                    <mxGeometry x="111" y="115" width="241" height="136" as="geometry"/>
                </mxCell>
                <mxCell id="4" value="en tant qu'utilisateur je souhait pouvoir me conecter/inscrire&amp;nbsp;&lt;br&gt;afin de consulter mes infos&lt;br&gt;suivi de commande" style="whiteSpace=wrap;html=1;sketch=1;curveFitting=1;jiggle=2;fillColor=none;fontFamily=Comic Sans MS;" vertex="1" parent="1">
                    <mxGeometry x="394" y="115" width="234" height="138" as="geometry"/>
                </mxCell>
                <mxCell id="5" value="en tant qu'utilisateur je souhait naviger&lt;br&gt;&amp;nbsp;entre plusieur menu facilement&amp;nbsp;&lt;br&gt;afin de trouver le produit que je charche" style="whiteSpace=wrap;html=1;sketch=1;curveFitting=1;jiggle=2;fillColor=none;fontFamily=Comic Sans MS;" vertex="1" parent="1">
                    <mxGeometry x="114" y="438" width="238" height="129" as="geometry"/>
                </mxCell>
                <mxCell id="8" value="je souhaite selectioné mon vehicule&lt;br&gt;afin&amp;nbsp; davoir des produit adapter pour moi" style="whiteSpace=wrap;html=1;sketch=1;curveFitting=1;jiggle=2;fillColor=none;fontFamily=Comic Sans MS;" vertex="1" parent="1">
                    <mxGeometry x="113" y="282" width="239" height="123" as="geometry"/>
                </mxCell>
                <mxCell id="10" value="je souhait avoir des reponse a des question technique&lt;br&gt;afin de ne pas me tromper" style="whiteSpace=wrap;html=1;sketch=1;curveFitting=1;jiggle=2;fillColor=none;fontFamily=Comic Sans MS;" vertex="1" parent="1">
                    <mxGeometry x="394" y="282" width="237" height="124" as="geometry"/>
                </mxCell>
                <mxCell id="11" value="je souhaite ajouté mon/mes produit a un panier&amp;nbsp;&lt;br&gt;afin de pouvoir passe une commande" style="whiteSpace=wrap;html=1;sketch=1;curveFitting=1;jiggle=2;fillColor=none;fontFamily=Comic Sans MS;" vertex="1" parent="1">
                    <mxGeometry x="394" y="438" width="238" height="126" as="geometry"/>
                </mxCell>
                <mxCell id="12" value="je souhaite accede a mon panier pour veriffier mes produit&amp;nbsp;&lt;br&gt;afin detre liverée" style="whiteSpace=wrap;html=1;sketch=1;curveFitting=1;jiggle=2;fillColor=none;fontFamily=Comic Sans MS;" vertex="1" parent="1">
                    <mxGeometry x="263" y="754" width="232" height="115" as="geometry"/>
                </mxCell>
                <mxCell id="14" value="je souhaite echanger avec d'autre utilisateur&lt;br&gt;afin d'echanger sur divers sujet" style="whiteSpace=wrap;html=1;sketch=1;curveFitting=1;jiggle=2;fillColor=none;fontFamily=Comic Sans MS;" vertex="1" parent="1">
                    <mxGeometry x="394" y="587" width="239" height="101" as="geometry"/>
                </mxCell>
            </root>
        </mxGraphModel>
    </diagram>
</mxfile>